<?xml version="1.0" encoding="utf-8"?>
<!-- Generator: Adobe Illustrator 26.5.0, SVG Export Plug-In . SVG Version: 6.00 Build 0)  -->
<svg version="1.1" id="Layer_1" xmlns="http://www.w3.org/2000/svg" xmlns:xlink="http://www.w3.org/1999/xlink" x="0px" y="0px"
	 viewBox="0 0 3200 3200" style="enable-background:new 0 0 3200 3200;" xml:space="preserve">
<style type="text/css">
	.st0{fill:#F02D79;}
	.st1{fill:#F27439;}
	.st2{fill:#FB9C32;}
	.st3{fill:#B81E4C;}
	.st4{fill:#CB942F;}
	.st5{fill:#FFAA00;}
	.st6{fill:#0F804C;}
	.st7{fill:#00AAD4;}
	.st8{fill:#1096D3;}
	.st9{fill:#F1523D;}
	.st10{fill:#E42338;}
	.st11{fill:#2EB24D;}
	.st12{fill:#10A348;}
	.st13{fill:#066F9F;}
	.st14{fill:#E9B233;}
	.st15{fill:#074B6E;}
	.st16{fill:#EF384C;}
</style>
<g>
	<g>
		<path class="st0" d="M968.95,130.64c-156.16,67.01-296.33,156-418.36,262.05c64.31,71.86,136.32,151.91,232.1,257.07
			c65.61,72.05,147.05,160.77,223.74,244.47c61.65-51.85,130.88-96.42,207.19-131.56c-41.35-105.54-85.25-217.31-120.45-308
			C1041.68,322.03,1003.25,221.26,968.95,130.64z"/>
		<path class="st1" d="M1054.86,96.6c35.05,90.19,74.6,191.12,127.51,323.91c35.86,90,80.6,200.98,122.73,305.76
			c79.55-26.94,160.49-42.15,240.95-46.87c-1.56-113.83-3.37-234.51-4.42-332.25c-1.53-141.81-2.06-249.24-2.28-345.91
			C1377.64,7.39,1214.47,38.61,1054.86,96.6z"/>
		<path class="st2" d="M479.02,458.57C360.18,575.34,261.49,709.21,185.06,854.42c87.28,42.23,185.34,89.31,314.95,150.62
			c87.54,41.41,195.83,92.15,298.03,140.12c40.11-70.84,89.53-136.62,147.63-195.18c-79.65-83.2-164.43-171.63-232.71-243.39
			C616.63,605.31,544.41,528.46,479.02,458.57z"/>
		<path class="st3" d="M1619.31,0.16c2.8,97.83,6.3,208.51,11.74,353.77c3.56,95.56,8.43,213.39,12.93,324.91
			c82.66,4.01,163.91,19.02,241.67,44.39c37.06-108.8,76.32-224.51,108.44-317.96c45.5-132.36,80.43-232.06,112.31-322.39
			C1950.45,30.75,1786.2,2.21,1619.31,0.16z"/>
		<path class="st4" d="M151.88,920.99c-70.09,149.56-116.94,309.69-138.34,474.66c96.92,9.83,206.16,20.63,349.91,33.96
			c95.6,8.88,213.64,19.37,325.22,29.39c12.74-81.66,36.41-161.02,70-236c-101.89-50.24-209.96-103.31-297.29-146.7
			C334.22,1013.17,238.16,964.77,151.88,920.99z"/>
		<path class="st5" d="M2202.23,118.33c-31.65,91.13-66.98,192.11-114.48,325.26c-32.97,92.44-74.22,206.46-112.92,313.95
			c74.3,33.03,144.29,75.77,207.86,127.45c75.5-87.13,156.06-179.88,220.79-255.04c91.21-105.88,159.45-186.07,221.03-258.79
			C2497.15,265.16,2354.44,180.2,2202.23,118.33z"/>
		<path class="st6" d="M3.25,1498.24c-10.45,162.28,4.22,327.89,45.64,491.52c93.27-25.75,197.64-54.83,335.09-94.06
			c93.2-26.59,208.21-59.94,316.76-91.27c-18.59-81.41-25.54-163.52-21.97-244.35c-113.54-9.97-233.96-20.36-331.44-29.2
			C206.24,1518.1,99.47,1507.76,3.25,1498.24z"/>
		<path class="st7" d="M2690.99,429.91c-63.54,74.75-135.22,158.63-229.98,268.17c-62.54,72.3-139.97,161.04-213.23,245.23
			c58.05,57.18,109.08,122.74,151.11,195.76c99.15-52.4,204.11-107.76,288.96-152.94c127.01-67.61,223.15-119.56,308.55-165.97
			C2913.89,672,2810.39,541.12,2690.99,429.91z"/>
		<path class="st8" d="M77,2087.8c11.94,37.17,24.79,74.26,39.63,111.04c48.59,120.38,110.43,231.31,182.71,332.45
			c78.3-59.71,167.15-127.92,283-217.88c74.55-57.9,166.16-129.57,253.11-197.51c-35.39-52.57-66-109.46-90.67-170.57
			c-6.93-17.16-13.12-34.45-18.95-51.77c-107.57,32.69-221.27,67.33-313.59,95.07C274.96,2029.86,170.5,2060.58,77,2087.8z"/>
		<path class="st9" d="M3040.53,905.16c-86.36,45.38-183.19,95.95-310.95,161.71c-85.52,44.02-191.18,97.84-291.12,148.89
			c5.9,12.88,11.61,25.88,16.96,39.14c26.24,65,44.26,131.22,55.08,197.63c110.61-11.53,227.41-23.61,322.09-33.79
			c144.65-15.52,254.79-27.97,352.06-39.27c-17.78-126.96-50.99-253.78-101.14-378.05C3070.24,968.56,3055.68,936.63,3040.53,905.16
			z"/>
		<path class="st10" d="M2520.39,1538.88c5.56,83.52-0.28,166.55-16.88,246.97c107.67,28.16,221.38,57.97,313.66,81.79
			c140.58,36.31,247.79,63.31,342.69,86.94c36.58-160.34,48.82-327.09,34-494.67c-97.06,12.13-206.01,25.48-349.28,42.13
			C2749.24,1513.13,2631.68,1526.3,2520.39,1538.88z"/>
		<path class="st11" d="M896.55,2196.47c-89.82,68.93-184.87,142.04-262.13,200.95c-113.44,86.52-199.89,151.62-277.58,209.83
			c105.5,130.35,229.87,241.34,367.07,331.1c51.48-82.18,109-174.58,184.07-296.78c50.55-82.31,112.64-184.17,171.31-280.32
			C1011.9,2315.21,950.35,2259.92,896.55,2196.47z"/>
		<path class="st12" d="M2482.58,1867.61c-23.92,78.74-58.3,154.04-102.15,223.81c89.99,66.96,185.12,137.61,262.06,195.24
			c115.59,86.54,203.21,152.88,281.05,212.26c93.12-137.36,164-288.42,210.85-447.21c-92.35-26.84-195.29-56.51-331.67-94.87
			C2708.7,1930.28,2592.21,1898.11,2482.58,1867.61z"/>
		<path class="st13" d="M1161.17,2411.24c-55.87,94.95-114.96,194.87-162.53,276.22c-74.01,126.52-129.98,223.47-178.92,308.88
			c145.55,81.23,303.23,139.49,467.14,172.35c15.04-98.13,32.4-209.57,56.02-355c14.92-92.6,33.97-206.37,51.88-314.58
			C1313.24,2480.4,1234.59,2450.9,1161.17,2411.24z"/>
		<path class="st14" d="M2325.32,2169.76c-50.74,64.74-110.3,123.26-178.18,173.19c59.35,92.58,121.78,190.19,172.78,269.22
			c79.67,123.47,141.09,217.47,195.28,299.84c138.78-96.6,259.2-212.95,358.51-343.83c-79.65-56.96-168.94-121.15-285.74-206.18
			C2510.55,2305.65,2415.46,2235.8,2325.32,2169.76z"/>
		<path class="st15" d="M1501.81,2517.19c-20.59,106.94-42.32,219.36-59.63,310.79c-27.67,146.05-48.21,258.15-65.83,355.95
			c162.73,23.13,330.26,21.44,497.12-7.69c-18.39-95.87-38.73-203.31-64.67-344.77c-17.3-94.53-38.2-211.14-58.06-321.49
			C1667.31,2523.85,1583.66,2526.04,1501.81,2517.19z"/>
		<path class="st16" d="M2069.62,2394.11c-39.28,23.16-80.75,43.74-124.31,61.34c-33.76,13.63-67.88,24.84-102.16,34.25
			c20.44,109.87,42.03,225.99,59.87,320.07c27.02,142.48,48.24,250.84,67.27,346.69c76.75-18.36,153.07-42.52,228.47-72.96
			c80.47-32.47,156.71-70.96,228.73-114.36c-51.35-81.15-107.9-170.96-182.03-290.28
			C2193.39,2595.31,2129.76,2491.63,2069.62,2394.11z"/>
	</g>
</g>
</svg>
